# xmcd
#
# Track frame offsets: 
#        150
#        14226
#        25663
#        39229
#        44938
#        59192
#        78211
#        88480
#        101417
#        112591
#        128377
#        133939
#        144368
#        154164
#        165486
#        183485
#        198184
#        211818
#        230674
#        242913
#        253220
#
# Disc length: 3539 seconds
#
# Revision: 0
# Processed by: cddbd v1.5.2PL0 Copyright (c) Steve Scherf et al.
# Submitted via: ExactAudioCopy v0.99pb5
#
DISCID=270dd115
DTITLE=Cyrkle  - The Minx [1969] [2001]  
DYEAR=1900
DGENRE=
TTITLE0=Squeeze Play
TTITLE1=The Minx (Vocal)
TTITLE2=Murray The Why
TTITLE3=The Rigging
TTITLE4=The Party
TTITLE5=Nicole
TTITLE6=It's A Lovely Game Louise
TTITLE7=The Minx (Instrumental)
TTITLE8=Something Special
TTITLE9=On The Road
TTITLE10=Walter's Riff
TTITLE11=The Chase
TTITLE12=Terry's Theme
TTITLE13=Something Special (Alt Instrumental)
TTITLE14=Kites
TTITLE15=Squeeze Play (Film Version)
TTITLE16=Murray The Why (Film Version)
TTITLE17=Nicole (Film Version)
TTITLE18=Baxter's Dangerous Game
TTITLE19=Terry's Escape
TTITLE20=The Minx Promo Spot
EXTD=
EXTT0=
EXTT1=
EXTT2=
EXTT3=
EXTT4=
EXTT5=
EXTT6=
EXTT7=
EXTT8=
EXTT9=
EXTT10=
EXTT11=
EXTT12=
EXTT13=
EXTT14=
EXTT15=
EXTT16=
EXTT17=
EXTT18=
EXTT19=
EXTT20=
PLAYORDER=
